<svg width="34" height="32" viewBox="0 0 34 32" fill="none" xmlns="http://www.w3.org/2000/svg">
<path d="M33.2774 12.0987C33.1723 11.7928 32.9811 11.5241 32.7271 11.3252C32.473 11.1263 32.1669 11.0057 31.846 10.9781L22.3756 9.59L18.1314 0.943445C17.9951 0.660682 17.7823 0.422213 17.5174 0.255355C17.2524 0.0884975 16.9461 0 16.6334 0C16.3207 0 16.0144 0.0884975 15.7495 0.255355C15.4845 0.422213 15.2717 0.660682 15.1354 0.943445L10.8912 9.57328L1.42078 10.9781C1.11274 11.0221 0.823136 11.152 0.584837 11.353C0.346539 11.554 0.169086 11.8182 0.0726175 12.1154C-0.0156874 12.4059 -0.0236117 12.715 0.0496949 13.0096C0.123002 13.3043 0.274772 13.5733 0.488718 13.7878L7.36269 20.4776L5.69829 29.9771C5.6311 30.2923 5.65594 30.6202 5.76984 30.9215C5.88373 31.2227 6.08183 31.4845 6.3403 31.6753C6.59877 31.8662 6.9066 31.9779 7.22676 31.997C7.54692 32.0162 7.86577 31.942 8.14496 31.7834L16.6334 27.318L25.1219 31.7834C25.3555 31.9158 25.6193 31.985 25.8875 31.9841C26.24 31.9853 26.5839 31.8741 26.8695 31.6663C27.1277 31.4804 27.3276 31.2242 27.4456 30.9279C27.5635 30.6315 27.5947 30.3074 27.5352 29.9939L25.8708 20.4944L32.7448 13.8046C32.9851 13.6 33.1627 13.3311 33.257 13.0291C33.3513 12.7272 33.3584 12.4045 33.2774 12.0987ZM23.0414 18.7885C22.8487 18.9765 22.7042 19.2085 22.6201 19.4648C22.5361 19.7211 22.515 19.994 22.5587 20.2602L23.757 27.2845L17.4989 23.9396C17.2557 23.8187 16.988 23.7558 16.7166 23.7558C16.4453 23.7558 16.1776 23.8187 15.9344 23.9396L9.67621 27.2845L10.8746 20.2602C10.9183 19.994 10.8972 19.7211 10.8131 19.4648C10.7291 19.2085 10.5845 18.9765 10.3919 18.7885L5.3987 13.7711L12.4058 12.7509C12.6755 12.7132 12.9318 12.6097 13.1523 12.4493C13.3728 12.2889 13.5509 12.0767 13.6708 11.8311L16.6334 5.45906L19.7625 11.8478C19.8824 12.0934 20.0604 12.3057 20.2809 12.466C20.5015 12.6264 20.7578 12.73 21.0274 12.7677L28.0346 13.7878L23.0414 18.7885Z" fill="#03042A"/>
</svg>
